<?xml version="1.0" encoding="utf-8"?>
<!-- Generator: Adobe Illustrator 16.0.0, SVG Export Plug-In . SVG Version: 6.00 Build 0)  -->
<!DOCTYPE svg PUBLIC "-//W3C//DTD SVG 1.1//EN" "http://www.w3.org/Graphics/SVG/1.1/DTD/svg11.dtd">
<svg version="1.1" id="Layer_1" xmlns="http://www.w3.org/2000/svg" xmlns:xlink="http://www.w3.org/1999/xlink" x="0px" y="0px"
	 width="24px" height="24px" viewBox="0 0 24 24" enable-background="new 0 0 24 24" xml:space="preserve">
<g>
	<path fill="#067FCB" d="M21.8,6.737v15.243c0,1.115-0.908,2.021-2.027,2.021H4.228C3.107,24,2.2,23.095,2.2,21.979V2.021
		C2.2,0.905,3.107,0,4.228,0H15.04L21.8,6.737z"/>
	<path fill="#4BAFE2" d="M21.8,6.359v0.839h-5.525c-1.145,0-1.672-0.928-1.672-2.072V0h0.836L21.8,6.359z"/>
	<path fill="#FFFFFF" d="M17.878,15.325c-0.135-0.063-0.307-0.096-0.518-0.096c-0.377,0-0.645,0.115-0.805,0.345
		c-0.158,0.23-0.238,0.588-0.238,1.07c0,0.484,0.082,0.836,0.246,1.061c0.162,0.223,0.443,0.334,0.84,0.334
		c0.17,0,0.328-0.024,0.471-0.072c0.143-0.049,0.277-0.155,0.406-0.32l0.834,0.584c-0.172,0.254-0.396,0.445-0.676,0.576
		s-0.633,0.195-1.061,0.195c-0.725,0-1.271-0.196-1.643-0.591c-0.371-0.393-0.557-0.976-0.557-1.749c0-0.754,0.18-1.34,0.539-1.761
		c0.359-0.42,0.898-0.631,1.617-0.631c0.385,0,0.727,0.063,1.027,0.188c0.303,0.126,0.531,0.319,0.688,0.579l-0.82,0.585
		C18.128,15.488,18.011,15.39,17.878,15.325z M12.245,19.002c-1.437,0-2.155-0.785-2.155-2.357c0-0.756,0.173-1.34,0.517-1.754
		c0.346-0.414,0.893-0.62,1.639-0.62c0.741,0,1.285,0.206,1.629,0.62c0.346,0.414,0.518,0.998,0.518,1.754
		c0,0.745-0.172,1.324-0.518,1.738C13.53,18.796,12.986,19.002,12.245,19.002z M13.021,15.568c-0.154-0.227-0.413-0.339-0.775-0.339
		c-0.359,0-0.619,0.116-0.777,0.348c-0.16,0.231-0.24,0.587-0.24,1.067c0,0.479,0.079,0.829,0.238,1.056
		c0.158,0.226,0.418,0.339,0.779,0.339c0.356,0,0.613-0.111,0.77-0.334c0.156-0.225,0.236-0.576,0.236-1.061
		C13.251,16.153,13.173,15.795,13.021,15.568z M8.06,18.436c-0.206,0.173-0.423,0.311-0.651,0.414
		c-0.228,0.102-0.487,0.152-0.778,0.152c-0.564,0-0.996-0.203-1.295-0.609c-0.301-0.406-0.449-0.98-0.449-1.723
		c0-0.758,0.164-1.348,0.494-1.769c0.328-0.42,0.791-0.631,1.387-0.631c0.211,0,0.428,0.043,0.65,0.13
		c0.223,0.086,0.406,0.197,0.553,0.33v-2.208h1.102v6.349H8.06V18.436z M7.97,15.64c-0.118-0.106-0.262-0.199-0.436-0.28
		c-0.172-0.08-0.348-0.121-0.527-0.121c-0.297,0-0.535,0.127-0.715,0.381s-0.27,0.6-0.27,1.034c0,0.429,0.074,0.766,0.221,1.011
		c0.146,0.244,0.374,0.367,0.682,0.367c0.183,0,0.369-0.043,0.559-0.127s0.351-0.187,0.486-0.309V15.64z"/>
</g>
</svg>
