<?xml version="1.0" encoding="utf-8"?>
<!-- Generator: Adobe Illustrator 16.0.0, SVG Export Plug-In . SVG Version: 6.00 Build 0)  -->
<!DOCTYPE svg PUBLIC "-//W3C//DTD SVG 1.1//EN" "http://www.w3.org/Graphics/SVG/1.1/DTD/svg11.dtd">
<svg version="1.1" id="Layer_1" xmlns="http://www.w3.org/2000/svg" xmlns:xlink="http://www.w3.org/1999/xlink" x="0px" y="0px"
	 width="24px" height="24px" viewBox="0 0 24 24" enable-background="new 0 0 24 24" xml:space="preserve">
<g>
	<path fill="#E0995E" d="M21.801,6.737v15.243c0,1.115-0.908,2.021-2.027,2.021H4.228C3.108,24,2.2,23.095,2.2,21.979V2.021
		C2.2,0.905,3.108,0,4.228,0h10.813L21.801,6.737z"/>
	<path fill="#EABE9D" d="M21.801,6.359v0.839h-5.525c-1.145,0-1.672-0.928-1.672-2.072V0h0.836L21.801,6.359z"/>
	<g>
		<g>
			<path fill="#FFFFFF" d="M3.872,19.977h16.083v-1.346c0,0-0.787-1.372-1.516-2.232c-0.541-0.64-1.35-0.819-2.057-0.035
				l-1.268,1.218l-2.766-3.516c-1.03-1.309-2.714-1.309-3.744,0L3.872,19.977z"/>
		</g>
	</g>
	<g>
		<circle fill="#FFFFFF" cx="15.859" cy="10.759" r="1.383"/>
	</g>
</g>
</svg>
