<?xml version="1.0" encoding="utf-8"?>
<!-- Generator: Adobe Illustrator 16.0.0, SVG Export Plug-In . SVG Version: 6.00 Build 0)  -->
<!DOCTYPE svg PUBLIC "-//W3C//DTD SVG 1.1//EN" "http://www.w3.org/Graphics/SVG/1.1/DTD/svg11.dtd">
<svg version="1.1" id="Layer_1" xmlns="http://www.w3.org/2000/svg" xmlns:xlink="http://www.w3.org/1999/xlink" x="0px" y="0px"
	 width="24px" height="24px" viewBox="0 0 24 24" enable-background="new 0 0 24 24" xml:space="preserve">
<g>
	<path fill="#CB0606" d="M21.8,6.737v15.242c0,1.117-0.908,2.021-2.027,2.021H4.228C3.108,24,2.2,23.096,2.2,21.979V2.021
		C2.2,0.905,3.108,0,4.228,0h10.814L21.8,6.737z"/>
	<path fill="#FB8D8D" d="M21.8,6.359v0.839h-5.525c-1.143,0-1.672-0.928-1.672-2.072V0h0.838L21.8,6.359z"/>
	<path fill="#FFFFFF" d="M18.689,13.592c-0.206-0.067-0.404-0.102-0.596-0.102c-0.219,0-0.368,0.045-0.449,0.135
		c-0.082,0.09-0.123,0.248-0.123,0.479v0.436h0.915v0.878h-0.915v3.614h-1.109v-3.614h-0.57v-0.878h0.57v-0.436
		c0-0.558,0.14-0.96,0.415-1.209c0.277-0.248,0.691-0.372,1.248-0.372c0.261,0,0.537,0.035,0.829,0.106L18.689,13.592z
		 M14.046,18.594c-0.207,0.175-0.424,0.313-0.653,0.416c-0.229,0.104-0.489,0.154-0.78,0.154c-0.568,0-1.003-0.205-1.304-0.612
		c-0.301-0.409-0.45-0.985-0.45-1.729c0-0.764,0.166-1.355,0.496-1.777c0.331-0.423,0.795-0.635,1.395-0.635
		c0.211,0,0.429,0.043,0.652,0.131c0.223,0.087,0.408,0.199,0.554,0.332v-2.219h1.109v6.377h-1.019V18.594z M13.955,15.785
		c-0.116-0.105-0.262-0.199-0.436-0.281c-0.173-0.081-0.351-0.12-0.531-0.12c-0.297,0-0.536,0.127-0.717,0.382
		c-0.181,0.256-0.271,0.602-0.271,1.039c0,0.431,0.074,0.768,0.221,1.016c0.148,0.244,0.377,0.367,0.686,0.367
		c0.184,0,0.371-0.043,0.561-0.127c0.19-0.084,0.354-0.188,0.487-0.31V15.785z M9.218,18.872c-0.273,0.194-0.597,0.292-0.977,0.292
		c-0.498,0-0.923-0.156-1.275-0.467v2.025H5.858v-6.184H6.88v0.441c0.207-0.178,0.424-0.316,0.652-0.418
		c0.227-0.102,0.488-0.152,0.782-0.152c0.571,0,1.005,0.199,1.303,0.6s0.446,0.98,0.446,1.742c0,0.483-0.073,0.908-0.219,1.277
		C9.698,18.396,9.489,18.678,9.218,18.872z M8.694,15.749c-0.152-0.245-0.38-0.365-0.68-0.365c-0.181,0-0.367,0.041-0.557,0.126
		c-0.191,0.084-0.354,0.188-0.492,0.309v1.967c0.117,0.105,0.263,0.199,0.438,0.279c0.172,0.082,0.35,0.123,0.534,0.123
		c0.304,0,0.544-0.129,0.72-0.387c0.176-0.26,0.264-0.602,0.264-1.031C8.921,16.334,8.845,15.993,8.694,15.749z"/>
</g>
</svg>
