<?xml version="1.0" encoding="utf-8"?>
<!-- Generator: Adobe Illustrator 16.0.0, SVG Export Plug-In . SVG Version: 6.00 Build 0)  -->
<!DOCTYPE svg PUBLIC "-//W3C//DTD SVG 1.1//EN" "http://www.w3.org/Graphics/SVG/1.1/DTD/svg11.dtd">
<svg version="1.1" id="Layer_1" xmlns="http://www.w3.org/2000/svg" xmlns:xlink="http://www.w3.org/1999/xlink" x="0px" y="0px"
	 width="16px" height="16px" viewBox="0 0 16 16" enable-background="new 0 0 16 16" xml:space="preserve">
<g>
	<g>
		<path fill="#5A8130" d="M9.754,10.996H1.253V5.003h8.501V4.25H1.253C0.838,4.25,0.5,4.587,0.5,5.003v5.993
			c0,0.416,0.338,0.754,0.753,0.754h8.501V10.996z M14.746,4.25h-2.384v0.753h2.384v5.993h-2.384v0.754h2.384
			c0.416,0,0.754-0.338,0.754-0.754V5.003C15.5,4.587,15.162,4.25,14.746,4.25z M12.607,13.283h-1.126V2.717h1.126
			c0.278,0,0.505-0.189,0.505-0.424c0-0.233-0.227-0.424-0.505-0.424H9.51c-0.279,0-0.506,0.19-0.506,0.424
			c0,0.234,0.227,0.424,0.506,0.424h1.125v10.566H9.51c-0.279,0-0.506,0.189-0.506,0.424c0,0.233,0.227,0.424,0.506,0.424h3.098
			c0.278,0,0.505-0.19,0.505-0.424C13.112,13.473,12.886,13.283,12.607,13.283z M7.503,10.125v-4.25h-5.5v4.25H7.503z"/>
	</g>
</g>
</svg>
