<?xml version="1.0" encoding="utf-8"?>
<!-- Generator: Adobe Illustrator 16.0.0, SVG Export Plug-In . SVG Version: 6.00 Build 0)  -->
<!DOCTYPE svg PUBLIC "-//W3C//DTD SVG 1.1//EN" "http://www.w3.org/Graphics/SVG/1.1/DTD/svg11.dtd">
<svg version="1.1" id="Layer_1" xmlns="http://www.w3.org/2000/svg" xmlns:xlink="http://www.w3.org/1999/xlink" x="0px" y="0px"
	 width="16px" height="16px" viewBox="0 0 16 16" enable-background="new 0 0 16 16" xml:space="preserve">
<path fill="#FFFFFF" d="M12.603,10.124c-0.685,0-1.298,0.292-1.735,0.759l-5.103-2.54c0.018-0.12,0.029-0.24,0.029-0.365
	c0-0.12-0.011-0.238-0.027-0.354L10.86,5.11c0.438,0.47,1.056,0.766,1.742,0.766C13.926,5.876,15,4.784,15,3.438
	C15,2.092,13.926,1,12.603,1s-2.396,1.092-2.396,2.438c0,0.121,0.011,0.238,0.027,0.354L5.139,6.307
	C4.702,5.836,4.084,5.54,3.397,5.54C2.073,5.54,1,6.632,1,7.978c0,1.347,1.073,2.438,2.397,2.438c0.684,0,1.298-0.293,1.735-0.76
	l5.103,2.541c-0.018,0.119-0.029,0.24-0.029,0.364c0,1.347,1.073,2.438,2.396,2.438S15,13.908,15,12.562
	S13.926,10.124,12.603,10.124z"/>
</svg>
