<?xml version="1.0" encoding="utf-8"?>
<!-- Generator: Adobe Illustrator 16.0.0, SVG Export Plug-In . SVG Version: 6.00 Build 0)  -->
<!DOCTYPE svg PUBLIC "-//W3C//DTD SVG 1.1//EN" "http://www.w3.org/Graphics/SVG/1.1/DTD/svg11.dtd">
<svg version="1.1" id="Layer_1" xmlns="http://www.w3.org/2000/svg" xmlns:xlink="http://www.w3.org/1999/xlink" x="0px" y="0px"
	 width="16px" height="16px" viewBox="0 0 16 16" enable-background="new 0 0 16 16" xml:space="preserve">
<path fill="#3698B3" d="M15.62,13.764l-3.678-3.73c0.625-1.008,0.987-2.2,0.987-3.479C12.93,2.934,10.035,0,6.465,0
	C2.894,0,0,2.934,0,6.554c0,3.62,2.894,6.553,6.465,6.553c1.374,0,2.646-0.435,3.692-1.175l3.635,3.686
	C14.044,15.873,14.376,16,14.706,16c0.331,0,0.662-0.127,0.915-0.383C16.126,15.104,16.126,14.275,15.62,13.764z M6.465,10.983
	c-2.413,0-4.37-1.983-4.37-4.429c0-2.447,1.957-4.43,4.37-4.43c2.414,0,4.37,1.983,4.37,4.43C10.835,9,8.878,10.983,6.465,10.983z"
	/>
</svg>
