<?xml version="1.0" encoding="utf-8"?>
<!-- Generator: Adobe Illustrator 16.0.0, SVG Export Plug-In . SVG Version: 6.00 Build 0)  -->
<!DOCTYPE svg PUBLIC "-//W3C//DTD SVG 1.1//EN" "http://www.w3.org/Graphics/SVG/1.1/DTD/svg11.dtd">
<svg version="1.1" id="Layer_1" xmlns="http://www.w3.org/2000/svg" xmlns:xlink="http://www.w3.org/1999/xlink" x="0px" y="0px"
	 width="24px" height="24px" viewBox="0 0 24 24" enable-background="new 0 0 24 24" xml:space="preserve">
<g>
	<path fill="#9933CC" d="M21.8,6.736v15.242c0,1.116-0.908,2.021-2.027,2.021H4.228C3.108,24,2.2,23.095,2.2,21.979V2.021
		C2.2,0.904,3.108,0,4.228,0h10.814L21.8,6.736z"/>
	<path fill="#C47EED" d="M21.8,6.359v0.839h-5.525c-1.143,0-1.672-0.929-1.672-2.072V0h0.838L21.8,6.359z"/>
	<g id="miu">
		<g id="Artboard-1" transform="translate(-323.000000, -587.000000)">
			<g id="slice" transform="translate(215.000000, 119.000000)">
			</g>
			<path id="device-camera-recorder-video-glyph" fill="#FFFFFF" d="M329.442,600.543v4.848c0,0.97,0.97,0.97,0.97,0.97h6.776
				c0,0,0.971,0,0.971-0.97v-4.848c0-0.97-0.971-0.97-0.971-0.97h-6.776C330.412,599.573,329.442,599.573,329.442,600.543z
				 M338.724,604.484l2.385,1.876v-6.787l-2.385,1.894V604.484z"/>
		</g>
	</g>
</g>
</svg>
