<?xml version="1.0" encoding="utf-8"?>
<!-- Generator: Adobe Illustrator 16.0.0, SVG Export Plug-In . SVG Version: 6.00 Build 0)  -->
<!DOCTYPE svg PUBLIC "-//W3C//DTD SVG 1.1//EN" "http://www.w3.org/Graphics/SVG/1.1/DTD/svg11.dtd">
<svg version="1.1" id="Layer_1" xmlns="http://www.w3.org/2000/svg" xmlns:xlink="http://www.w3.org/1999/xlink" x="0px" y="0px"
	 width="24px" height="24px" viewBox="0 0 24 24" enable-background="new 0 0 24 24" xml:space="preserve">
<g>
	<path fill="#FFCC66" d="M21.973,8.151H2.024c-1.014,0-1.064,0.554-1.008,1.233L1.76,20.393c0.053,0.674,0.201,1.232,1.209,1.232
		h18.115c1.031,0,1.152-0.554,1.209-1.232l0.693-11.146C23.038,8.573,22.986,8.151,21.973,8.151z"/>
	<path fill="#CCA352" d="M21.749,5.222c-0.028-0.746-0.258-0.92-0.864-0.92c0,0-6.956,0-8.205,0c-1.248,0-1.398,0.018-2.343-1.046
		C9.552,2.365,9.862,2.377,8.24,2.377c-1.294,0-4.313,0-4.313,0c-0.996,0-1.352-0.09-1.444,0.999
		C2.397,4.38,2.196,6.816,2.167,7.189h19.673L21.749,5.222z"/>
</g>
</svg>
