<?xml version="1.0" encoding="utf-8"?>
<!-- Generator: Adobe Illustrator 16.0.0, SVG Export Plug-In . SVG Version: 6.00 Build 0)  -->
<!DOCTYPE svg PUBLIC "-//W3C//DTD SVG 1.1//EN" "http://www.w3.org/Graphics/SVG/1.1/DTD/svg11.dtd">
<svg version="1.1" id="Layer_1" xmlns="http://www.w3.org/2000/svg" xmlns:xlink="http://www.w3.org/1999/xlink" x="0px" y="0px"
	 width="16px" height="16px" viewBox="0 0 16 16" enable-background="new 0 0 16 16" xml:space="preserve">
<g>
	<g>
		<path fill="#FFFFFF" d="M15.252,5.2H0.745c-0.737,0-0.775,0.402-0.733,0.897l0.542,8.005C0.59,14.593,0.699,15,1.432,15h13.174
			c0.75,0,0.837-0.403,0.88-0.897l0.504-8.106C16.027,5.507,15.99,5.2,15.252,5.2z M15.09,3.07
			c-0.021-0.543-0.188-0.669-0.629-0.669c0,0-5.059,0-5.966,0c-0.908,0-1.017,0.013-1.704-0.761
			C6.219,0.992,6.444,1.001,5.265,1.001c-0.941,0-3.137,0-3.137,0c-0.725,0-0.983-0.065-1.05,0.727
			C1.016,2.458,0.87,4.229,0.849,4.5h14.308L15.09,3.07z"/>
	</g>
</g>
</svg>
