<?xml version="1.0" encoding="utf-8"?>
<!-- Generator: Adobe Illustrator 16.0.0, SVG Export Plug-In . SVG Version: 6.00 Build 0)  -->
<!DOCTYPE svg PUBLIC "-//W3C//DTD SVG 1.1//EN" "http://www.w3.org/Graphics/SVG/1.1/DTD/svg11.dtd">
<svg version="1.1" id="Layer_1" xmlns="http://www.w3.org/2000/svg" xmlns:xlink="http://www.w3.org/1999/xlink" x="0px" y="0px"
	 width="16px" height="16px" viewBox="0 0 16 16" enable-background="new 0 0 16 16" xml:space="preserve">
<g>
	<g>
		<path fill="#5A8130" d="M14.704,2.752c-0.018-0.474-0.164-0.585-0.55-0.585c0,0-4.427,0-5.221,0c-0.795,0-0.89,0.011-1.491-0.666
			c-0.5-0.566-0.303-0.559-1.335-0.559c-0.824,0-2.745,0-2.745,0c-0.636,0-0.86-0.058-0.919,0.635
			C2.389,2.216,2.261,3.766,2.242,4.003h12.521L14.704,2.752z M14.847,4.616H2.151c-0.645,0-0.678,0.352-0.642,0.784l0.281,4.159
			H3.5V5.856l6.519,5.703L8.16,13.186h6.121c0.656,0,0.733-0.353,0.77-0.784l0.44-7.09C15.524,4.883,15.491,4.616,14.847,4.616z
			 M8.5,11.559l-4-3.499v2.499h-4v2h4v2.5L8.5,11.559z"/>
	</g>
</g>
</svg>
