<?xml version="1.0" encoding="utf-8"?>
<!-- Generator: Adobe Illustrator 16.0.0, SVG Export Plug-In . SVG Version: 6.00 Build 0)  -->
<!DOCTYPE svg PUBLIC "-//W3C//DTD SVG 1.1//EN" "http://www.w3.org/Graphics/SVG/1.1/DTD/svg11.dtd">
<svg version="1.1" id="Layer_1" xmlns="http://www.w3.org/2000/svg" xmlns:xlink="http://www.w3.org/1999/xlink" x="0px" y="0px"
	 width="24px" height="24px" viewBox="0 0 24 24" enable-background="new 0 0 24 24" xml:space="preserve">
<g>
	<g>
		<path fill="#BBCACF" d="M21.8,6.737v15.243c0,1.115-0.908,2.021-2.027,2.021H4.228C3.108,24,2.2,23.095,2.2,21.979V2.021
			C2.2,0.905,3.108,0,4.228,0h10.814L21.8,6.737z"/>
		<path fill="#DFEAEE" d="M21.8,6.359v0.839h-5.525c-1.143,0-1.672-0.928-1.672-2.072V0h0.838L21.8,6.359z"/>
	</g>
	<g>
		<rect x="4.5" y="4" fill="#FFFFFF" width="7" height="1"/>
		<rect x="4.5" y="9" fill="#FFFFFF" width="7" height="1"/>
		<rect x="4.5" y="14" fill="#FFFFFF" width="15" height="1"/>
		<rect x="4.5" y="19" fill="#FFFFFF" width="15" height="1"/>
	</g>
</g>
</svg>
