<?xml version="1.0" encoding="utf-8"?>
<!-- Generator: Adobe Illustrator 16.0.0, SVG Export Plug-In . SVG Version: 6.00 Build 0)  -->
<!DOCTYPE svg PUBLIC "-//W3C//DTD SVG 1.1//EN" "http://www.w3.org/Graphics/SVG/1.1/DTD/svg11.dtd">
<svg version="1.1" id="Layer_1" xmlns="http://www.w3.org/2000/svg" xmlns:xlink="http://www.w3.org/1999/xlink" x="0px" y="0px"
	 width="24px" height="24px" viewBox="0 0 24 24" enable-background="new 0 0 24 24" xml:space="preserve">
<g>
	<path fill="#79AC00" d="M21.8,6.737v15.242c0,1.117-0.907,2.021-2.027,2.021H4.228C3.107,24,2.2,23.096,2.2,21.979V2.021
		C2.2,0.905,3.107,0,4.228,0h10.813L21.8,6.737z"/>
	<path fill="#B4E441" d="M21.8,6.359v0.839h-5.524c-1.145,0-1.672-0.928-1.672-2.072V0h0.836L21.8,6.359z"/>
	<path fill="#FFFFFF" d="M15.59,15.495c-0.228,0-0.4,0.04-0.517,0.118c-0.117,0.078-0.177,0.178-0.177,0.299
		c0,0.117,0.054,0.211,0.159,0.28s0.313,0.143,0.625,0.22c0.51,0.125,0.874,0.249,1.092,0.373c0.219,0.123,0.384,0.276,0.496,0.459
		c0.113,0.185,0.169,0.409,0.169,0.677c0,0.296-0.075,0.549-0.224,0.759c-0.15,0.211-0.362,0.371-0.638,0.481
		c-0.275,0.111-0.59,0.167-0.943,0.167c-0.938,0-1.576-0.261-1.916-0.781l0.821-0.575c0.134,0.183,0.289,0.304,0.465,0.364
		c0.175,0.063,0.362,0.092,0.562,0.092c0.524,0,0.787-0.152,0.787-0.456c0-0.134-0.074-0.236-0.223-0.309
		c-0.148-0.073-0.381-0.147-0.697-0.224c-0.595-0.131-1.015-0.316-1.258-0.555c-0.241-0.238-0.363-0.549-0.363-0.93
		c0-0.395,0.152-0.721,0.456-0.977c0.304-0.255,0.75-0.383,1.341-0.383c0.402,0,0.756,0.064,1.063,0.191
		c0.307,0.129,0.543,0.32,0.708,0.575l-0.825,0.585C16.355,15.646,16.034,15.495,15.59,15.495z M11.664,12.848h1.104v6.348h-1.104
		V12.848z M9.606,19.195l-0.889-1.424l-0.933,1.424H6.563l1.548-2.208l-1.522-2.264h1.287l0.894,1.415l0.92-1.415h1.219
		l-1.544,2.204l1.553,2.268H9.606z"/>
</g>
</svg>
