<?xml version="1.0" encoding="utf-8"?>
<!-- Generator: Adobe Illustrator 16.0.0, SVG Export Plug-In . SVG Version: 6.00 Build 0)  -->
<!DOCTYPE svg PUBLIC "-//W3C//DTD SVG 1.1//EN" "http://www.w3.org/Graphics/SVG/1.1/DTD/svg11.dtd">
<svg version="1.1" id="Layer_1" xmlns="http://www.w3.org/2000/svg" xmlns:xlink="http://www.w3.org/1999/xlink" x="0px" y="0px"
	 width="24px" height="24px" viewBox="0 0 24 24" enable-background="new 0 0 24 24" xml:space="preserve">
<g>
	<g>
		<path fill="#76B8B7" d="M21.8,6.737v15.243c0,1.115-0.908,2.021-2.027,2.021H4.228C3.108,24,2.2,23.095,2.2,21.979V2.021
			C2.2,0.905,3.108,0,4.228,0h10.814L21.8,6.737z"/>
		<path fill="#AFDCDB" d="M21.8,6.359v0.839h-5.525c-1.143,0-1.672-0.928-1.672-2.072V0h0.838L21.8,6.359z"/>
	</g>
	<g>
		<path fill="#FFFFFF" d="M17.543,18.677c-0.272,0.194-0.597,0.292-0.976,0.292c-0.498,0-0.924-0.155-1.275-0.468v2.026h-1.107
			v-6.183h1.021v0.439c0.207-0.176,0.424-0.315,0.651-0.418c0.228-0.1,0.489-0.15,0.782-0.15c0.571,0,1.005,0.199,1.303,0.6
			c0.299,0.398,0.446,0.979,0.446,1.741c0,0.483-0.073,0.909-0.218,1.276C18.024,18.202,17.815,18.482,17.543,18.677z M17.02,15.554
			c-0.152-0.244-0.38-0.365-0.68-0.365c-0.181,0-0.366,0.041-0.556,0.125c-0.191,0.084-0.355,0.188-0.492,0.311v1.965
			c0.117,0.105,0.262,0.199,0.437,0.281c0.173,0.082,0.351,0.122,0.534,0.122c0.304,0,0.545-0.129,0.721-0.388
			s0.264-0.601,0.264-1.029C17.247,16.138,17.171,15.798,17.02,15.554z"/>
		<path fill="#FFFFFF" d="M12.688,13.327c-0.112,0.09-0.282,0.135-0.513,0.135c-0.254,0-0.429-0.053-0.521-0.158
			c-0.091-0.105-0.137-0.256-0.137-0.451c0-0.217,0.05-0.372,0.148-0.467c0.1-0.095,0.27-0.143,0.509-0.143
			c0.243,0,0.417,0.047,0.522,0.138s0.158,0.249,0.158,0.472C12.856,13.079,12.801,13.237,12.688,13.327z M12.787,19.059h-1.203
			v-4.876h1.203V19.059z"/>
		<g>
			<path fill="#FFFFFF" d="M6.652,18.065L9.2,14.952H6.652v-0.826h3.595v0.92l-2.549,3.113h2.549v0.826H6.652V18.065z"/>
		</g>
	</g>
</g>
</svg>
